# xmcd CD database file
# Copyright (C) 1993-1998 Ti Kan
#
# Track frame offsets:
#  150
#  12440
#  28325
#  39845
#  53620
#  68380
#  83092
#  100262
#  113172
#  133952
#  158050
#  181459
#  201670
#  219377
#  238182
#  259305
#
# Disc length: 3658 seconds
#
# Revision: 1
# Processed by: cddbd v1.4b41PL1 Copyright (c) Steve Scherf et al.
# Submitted via: CDWizzard Release:4.35
#
DISCID=e00e4810
DTITLE=Three Degrees - Brand New Recordings Of Their Greatest Hits
DYEAR=1900
DGENRE=
TTITLE0=When Will I See You Again
TTITLE1=Take Good Care Of Yourself
TTITLE2=Year Of Decision
TTITLE3=Long Lost Lover
TTITLE4=Dirty Old Man
TTITLE5=Get Your Love Back
TTITLE6=Together
TTITLE7=TSOP
TTITLE8=My Simple Heart
TTITLE9=Red Light
TTITLE10=Woman In Love
TTITLE11=Take Me Away
TTITLE12=Giving Up, Giving In
TTITLE13=Jump The Gun
TTITLE14=The Runner
TTITLE15=The Heaven I Need
EXTD=
EXTT0=
EXTT1=
EXTT2=
EXTT3=
EXTT4=
EXTT5=
EXTT6=
EXTT7=
EXTT8=
EXTT9=
EXTT10=
EXTT11=
EXTT12=
EXTT13=
EXTT14=
EXTT15=
PLAYORDER=
